<svg xmlns="http://www.w3.org/2000/svg" width="30" height="30" viewBox="0 0 30 30">
  <g fill="#4A4A4A" fill-rule="evenodd">
    <path fill-rule="nonzero" d="M15,0 C6.71394231,0 0,6.71394231 0,15 C0,23.2860577 6.71394231,30 15,30 C23.2860577,30 30,23.2860577 30,15 C30,6.71394231 23.2860577,0 15,0 Z M15,28.7524038 C7.42067308,28.7524038 1.24759615,22.5865385 1.24759615,15 C1.24759615,7.41346154 7.42067308,1.24759615 15,1.24759615 C22.5793269,1.24759615 28.7524038,7.42067308 28.7524038,15 C28.7524038,22.5793269 22.5793269,28.7524038 15,28.7524038 Z"/>
    <polygon points="15.584 5.769 14.373 5.769 14.373 14.416 5.769 14.416 5.769 15.627 14.373 15.627 14.373 24.231 15.584 24.231 15.584 15.627 24.231 15.627 24.231 14.416 15.584 14.416"/>
  </g>
</svg>
