<?xml version="1.0" encoding="UTF-8"?>
<svg width="40px" height="29px" viewBox="0 0 40 29" version="1.1" xmlns="http://www.w3.org/2000/svg" xmlns:xlink="http://www.w3.org/1999/xlink">
    <!-- Generator: Sketch 53 (72520) - https://sketchapp.com -->
    <title>fox-icon</title>
    <desc>Created with Sketch.</desc>
    <g id="Desktop" stroke="none" stroke-width="1" fill="none" fill-rule="evenodd">
        <g id="thefoxclub-homepage-03" transform="translate(-149.000000, -6659.000000)" fill="#E85642" fill-rule="nonzero">
            <g id="Footer-#9" transform="translate(0.000000, 6567.000000)">
                <g id="fox-icon" transform="translate(149.000000, 92.000000)">
                    <path d="M39.0338164,18.8985507 C39.0338164,22.2415459 37.7198068,25.8550725 33.8937198,28.9855072 L33.8937198,26.647343 C31.9227053,26.5120773 30.47343,25.4492754 29.8357488,23.8454106 L26.4347826,22.6280193 C26.4347826,21.3719807 27.0144928,20.2898551 29.2173913,20.2898551 L30.3381643,20.2898551 C32.4637681,20.2898551 32.4637681,17.3913043 30.3381643,17.3913043 L15.0144928,17.3913043 C14.9758454,17.3913043 14.9178744,17.3913043 14.8792271,17.3719807 C10.6280193,17.178744 9.04347826,15.1690821 6.76328502,11.6908213 L0.38647343,1.93236715 C6.51207729,1.95169082 9.87439614,5.70048309 12.6183575,12.4251208 C12.8888889,13.0821256 13.294686,12.8309179 13.294686,12.4830918 C13.294686,7.65217391 10.705314,7.22705314 10.589372,5.87439614 L10.2608696,1.48792271 C10.1449275,4.99973396e-11 10.1449275,4.99973396e-11 10.647343,4.99973396e-11 L11.4975845,4.99973396e-11 C11.8647343,4.99973396e-11 11.8647343,4.99973396e-11 12.4637681,1.48792271 L13.5652174,4.57971014 C15.0338164,5.25603865 17.5458937,6.35748792 20.0966184,9.06280193 C23.7294686,7.57487923 27.1111111,7.36231884 29.9903382,8.05797101 L31.0724638,1.41062802 C31.3043478,4.99973396e-11 31.3043478,4.99973396e-11 32,4.99973396e-11 L32.7729469,4.99973396e-11 C33.236715,4.99973396e-11 33.236715,4.99973396e-11 33.236715,1.42995169 L33.236715,9.31400966 C36.8115942,11.3043478 39.0338164,14.9178744 39.0338164,18.8985507 Z M31.3043478,28.9855072 L31.3043478,26.8599034 C31.8647343,27.1497585 32.5217391,27.3429952 33.2173913,27.4396135 L31.3043478,28.9855072 Z M39.5169082,8.25120773 L37.352657,11.2850242 C36.5410628,10.2222222 35.4396135,9.37198068 34.3188406,8.63768116 L37.410628,6.51207729 L35.7487923,2.51207729 C35.5169082,1.93236715 35.5362319,1.93236715 36.1352657,1.93236715 L36.9082126,1.93236715 C37.352657,1.93236715 37.352657,1.93236715 37.7004831,2.55072464 L39.4396135,5.75845411 C39.9227053,6.60869565 40.115942,7.43961353 39.5169082,8.25120773 Z M17.7777778,5.56521739 L15.1304348,4.15458937 L15.9227053,1.48792271 C16.3671498,4.99973396e-11 16.3671498,4.99973396e-11 16.8115942,4.99973396e-11 L17.410628,4.99973396e-11 C18.0483092,4.99973396e-11 18.0483092,4.99973396e-11 17.9710145,1.48792271 L17.7777778,5.56521739 Z" id="Shape" transform="translate(20.138377, 14.492754) scale(-1, 1) rotate(-180.000000) translate(-20.138377, -14.492754) "></path>
                </g>
            </g>
        </g>
    </g>
</svg>