<svg xmlns="http://www.w3.org/2000/svg" viewBox="0 0 18 20"><path fill="currentColor" fill-rule="evenodd" d="M185.412698,0 C186.08995,0 186.661373,0.24338381 187.126984,0.73015873 C187.592595,1.21693365 187.825397,1.79893841 187.825397,2.47619048 C187.825397,3.15344254 187.592595,3.7248654 187.126984,4.19047619 C186.661373,4.65608698 186.08995,4.88888889 185.412698,4.88888889 C184.735446,4.88888889 184.164023,4.65608698 183.698413,4.19047619 C183.232802,3.7248654 183,3.15344254 183,2.47619048 C183,1.79893841 183.232802,1.21693365 183.698413,0.73015873 C184.164023,0.24338381 184.735446,0 185.412698,0 Z M189.285714,20 L189.285714,6.34920635 L193.222222,6.34920635 L193.222222,6.98412698 C193.984131,6.6031727 194.841265,6.43386222 195.793651,6.47619048 C196.746037,6.51851873 197.582007,6.73015683 198.301587,7.11111111 C199.105824,7.5767219 199.75132,8.2328 200.238095,9.07936508 C200.72487,9.92593016 200.968254,10.7936463 200.968254,11.6825397 L200.968254,20 L197.095238,20 L197.095238,11.6825397 C197.095238,11.4708984 197.021165,11.2486784 196.873016,11.015873 C196.724867,10.7830676 196.566138,10.624339 196.396825,10.5396825 C196.015871,10.3280413 195.634921,10.243386 195.253968,10.2857143 C194.873014,10.3280425 194.534393,10.4126978 194.238095,10.5396825 C193.857141,10.7089956 193.51852,10.9417975 193.222222,11.2380952 L193.222222,20 L189.285714,20 Z M187.380952,6.34920635 L187.380952,20 L183.444444,20 L183.444444,6.34920635 L187.380952,6.34920635 Z" transform="translate(-183)"/></svg>