<svg xmlns="http://www.w3.org/2000/svg" width="221" height="87" viewBox="0 0 221 87">
  <g fill="#FFF" fill-rule="evenodd" transform="translate(1)">
    <path fill-rule="nonzero" d="M83.760092,-1.10256631e-15 C84.509092,0.0368965517 85.258092,0.0614942529 86.0058621,0.113149425 C88.5763218,0.291482759 91.1504713,0.445218391 93.7160115,0.675206897 C96.0318851,0.883057471 98.344069,1.14748276 100.651333,1.44388506 C103.108644,1.75996552 105.562264,2.12032184 108.009736,2.50650575 C110.897506,2.9627931 113.780356,3.45843678 116.661977,3.95285057 C118.308793,4.23572414 119.95192,4.54196552 121.593816,4.85189655 C121.930805,4.91585057 122.152184,4.82975862 122.390782,4.57394253 C123.950276,2.90252874 125.72623,1.52751724 127.906816,0.760068966 C128.342195,0.606333333 128.82554,0.568206897 129.291667,0.531310345 C129.426954,0.520241379 129.577,0.694885057 129.720897,0.784666667 C129.629885,0.923643678 129.568391,1.1032069 129.442943,1.19298851 C129.265839,1.31843678 129.04446,1.38731034 128.836609,1.4647931 C126.954885,2.17074713 125.555276,3.48303448 124.343839,5.03268966 L124.193793,5.32171264 C125.08669,5.51111494 125.939,5.6955977 126.79254,5.87147126 C129.164989,6.36096552 131.533747,6.87382759 133.913575,7.32642529 C137.058391,7.92414943 140.208126,8.50096552 143.364011,9.03227586 C144.751322,9.26595402 146.16077,9.39017241 147.55546,8.98922989 C147.671069,8.95602299 147.826034,9.05441379 147.961322,9.09254023 C147.903517,9.24996552 147.881379,9.5143908 147.781759,9.5475977 C147.207402,9.74068966 146.624437,9.94362069 146.027943,10.0223333 C144.254448,10.2572414 142.495713,9.97682759 140.740667,9.76036782 C138.764241,9.51562069 136.790276,9.24627586 134.82246,8.94495402 C132.290126,8.55877011 129.762713,8.13568966 127.234069,7.71875862 C125.929161,7.50352874 124.627943,7.27108046 123.326724,7.03248276 C123.042621,6.98082759 122.893805,7.10012644 122.742529,7.31289655 C120.506598,10.4638621 118.362908,13.6763218 116.489793,17.0548161 C114.49,20.662069 112.583678,24.3197471 110.63431,27.9552874 L108.691092,31.5613103 L108.527517,31.9253563 C108.735368,31.9474943 108.903862,31.9880805 109.072356,31.981931 C111.453414,31.8872299 113.835701,31.8035977 116.215529,31.6793793 C118.402264,31.5662299 120.58408,31.351 122.709322,30.8135402 C123.673552,30.570023 124.581207,30.110046 125.519609,29.7619885 C126.856494,29.2638851 128.235195,29.0511149 129.664322,29.1618046 C131.596471,29.3106207 132.959184,30.6684138 133.239598,32.7014138 C133.559368,35.0148276 133.072333,37.2101724 132.192966,39.312046 C130.371506,43.6646092 127.853931,47.5731839 124.454529,50.8754253 C123.350092,51.9478851 122.111598,52.8420115 120.677552,53.4532644 C118.228851,54.4986667 115.958483,53.4016092 114.672023,51.8347356 C113.672126,50.6183793 113.212149,49.1818736 113.084241,47.6395977 C112.77677,43.9032069 113.970989,40.5837471 115.981851,37.5090345 C117.049391,35.8757471 118.354299,34.4466207 119.830161,33.1712299 L120.200356,32.828092 L119.637069,32.828092 C117.308897,32.880977 114.980724,32.9461609 112.652552,32.9842874 C111.243103,33.0076552 109.833655,33.0015057 108.424207,32.9793678 C108.084759,32.9744483 107.929793,33.1158851 107.782207,33.3827701 C105.697552,37.1745057 103.432103,40.853092 100.821057,44.3078391 C97.980023,48.0651379 94.7884713,51.4731494 90.9057241,54.1875057 C86.9934598,56.9227701 82.690092,58.7196322 77.971023,59.4428046 C76.1311149,59.7256782 74.2616897,59.8400575 72.4021034,59.9655057 C69.6717586,60.1487586 67.0016782,59.781023 64.4324483,58.8364713 C59.2595517,56.935069 55.9843678,53.242954 54.3818276,48.0184023 C53.627908,45.561092 53.4631034,43.0447471 53.6857126,40.4902759 C53.8271494,38.8594483 54.1395402,37.2667471 54.5995172,35.6986437 C54.6548621,35.5092414 54.6794598,35.3714943 54.4691494,35.2448161 C51.7031379,33.5918506 49.8324828,31.1468391 48.4205747,28.3168736 C47.3751724,26.2223793 46.6015747,24.0307241 46.3814253,21.6828736 C45.903,16.5874598 47.0578621,12.0098276 50.932,8.44193103 C53.8788046,5.72757471 57.3163333,3.78435632 61.1351264,2.53725287 C63.9933793,1.60377011 66.9229655,0.993747126 69.9091264,0.682586207 C71.9458161,0.469816092 73.9886552,0.324689655 76.0314943,0.177103448 C77.0043333,0.107 77.982092,0.10454023 78.9561609,0.0664137931 L79.318977,0.00122988506 L83.760092,-1.42108547e-14 L83.760092,-1.10256631e-15 Z M90.490023,33.8907126 C90.9241724,33.7541954 91.3005172,33.618908 91.6867011,33.5168276 C95.047977,32.6313103 98.4941149,32.3718046 101.945172,32.1873218 C103.582149,32.1 103.588299,32.1467356 104.446759,30.7188391 C106.067747,28.0192414 107.642,25.2901264 109.312184,22.6212759 C112.294655,17.857931 115.461609,13.2175747 118.856092,8.73464368 L120.542264,6.51224138 C119.816632,6.39663218 119.164793,6.27856322 118.508034,6.19124138 C115.042218,5.73003448 111.577632,5.26513793 108.109356,4.82483908 C105.802092,4.53212644 103.492368,4.25294253 101.178954,4.01803448 C98.5875862,3.75483908 95.9912989,3.51993103 93.3937816,3.32806897 C90.767977,3.13374713 88.1384828,2.95049425 85.5077586,2.87055172 C83.2509195,2.80167816 80.9891609,2.85702299 78.7298621,2.9135977 C77.0031034,2.95664368 75.2738851,3.04642529 73.552046,3.19032184 C70.6359885,3.4326092 67.7396092,3.84093103 64.8875057,4.51367816 C60.9777011,5.43609195 57.265908,6.82709195 53.9735057,9.19462069 C51.8814713,10.6987701 50.1534828,12.5325287 48.9986207,14.8557816 C47.5781034,17.7115747 47.3173678,20.7247931 47.9101724,23.8216437 C48.6308851,27.5826322 50.258023,30.8639655 53.1765402,33.4245862 C53.7152299,33.8968621 54.292046,34.326092 54.8873103,34.8020575 L55.0496552,34.4072644 C55.8404713,32.2033103 56.9227701,30.1518621 58.2485862,28.2234023 C61.117908,24.0516322 64.9834368,21.0937586 69.5241724,18.9648276 C72.5951954,17.5246322 75.8088851,16.5505632 79.1726207,16.0721379 C81.5167816,15.7388391 83.8597126,15.6146207 86.2087931,16.0044943 C87.7387701,16.2578506 89.1998736,16.7042989 90.4322184,17.6918966 C92.245069,19.1468506 92.9522529,21.1466437 93.1207471,23.3776552 C93.324908,26.0747931 92.7505517,28.6452529 91.7494253,31.1296207 C91.3804598,32.0458851 90.9327816,32.9264828 90.490023,33.8907126 L90.490023,33.8907126 Z M102.806092,33.1982874 L102.456805,33.1761494 C100.733736,33.3040575 99.0118966,33.4405747 97.2888276,33.5611034 C95.5866667,33.6804023 93.9127931,33.9374483 92.2930345,34.4958161 C90.7027931,35.0443448 89.2146322,35.7404598 88.2184253,37.1917241 C87.6662069,37.9972989 87.129977,38.8176322 86.5150345,39.5727816 C86.146069,40.0266092 85.6651839,40.4041839 85.1879885,40.7510115 C84.8915862,40.9650115 84.4623563,40.949023 84.2274483,40.6563103 C84.0528046,40.4386207 83.9187471,40.0413678 83.9962299,39.7966207 C84.1991609,39.1558506 84.434069,38.488023 84.8239425,37.9517931 C85.7783333,36.637046 87.0377356,35.6445287 88.457023,34.8524828 C88.6611839,34.7381034 88.853046,34.5413218 88.9674253,34.335931 C89.8836897,32.6866552 90.6277701,30.9598966 91.1676897,29.1507356 C91.8797931,26.7696782 92.3397701,24.3566437 91.9007011,21.8587471 C91.5022184,19.5871494 90.2809425,17.9710805 88.072069,17.2011724 C86.3416207,16.5985287 84.5545977,16.6833908 82.7798736,16.9465862 C80.4307931,17.2946437 78.2145402,18.0891494 76.0929885,19.1333218 C70.8192414,21.7308391 66.169046,25.1794368 62.2235747,29.5406092 C59.4833908,32.5685862 57.3433908,35.9802874 56.0852184,39.8974713 C55.3386782,42.2207241 54.9143678,44.607931 55.3927931,47.0221954 C56.3668621,51.9245172 59.0836782,55.4997931 63.7769195,57.4221034 C66.2379195,58.4306092 68.8255977,58.7245517 71.476,58.6581379 C74.8840115,58.5732759 78.078023,57.6988276 81.1158391,56.2008276 C85.1240345,54.2256322 88.4828506,51.3956667 91.5366552,48.1832069 C95.2201609,44.3078391 98.3465287,39.9983218 101.281034,35.5436782 L102.806092,33.1982874 Z M131.760046,32.3791839 C131.760046,32.1701034 131.777264,31.9585632 131.757586,31.7519425 C131.660425,30.7385172 130.867149,30.0891379 129.884471,30.249023 C129.517966,30.3080575 129.14654,30.419977 128.812011,30.5798621 C127.571057,31.1714368 126.555172,32.0692529 125.637678,33.0691494 C121.988609,37.0478276 119.257034,41.6107011 117.184678,46.5745172 C116.647218,47.860977 116.235207,49.1978621 116.322529,50.6294483 C116.41723,52.1791034 117.81192,53.5049195 119.534989,52.5443793 C120.325805,52.1028506 121.063736,51.5161954 121.715575,50.8828046 C123.607138,49.0441264 125.063322,46.8586207 126.485069,44.6558966 C128.103598,42.146931 129.639724,39.5912299 130.698655,36.7834023 C131.234885,35.3579655 131.736678,33.9251494 131.760046,32.3791839 Z M131.747747,86.091954 C131.102057,86.007092 130.452678,85.9406782 129.810678,85.8361379 C124.643931,84.9948966 121.137529,82.0468621 119.013517,77.3327126 C118.014851,75.1176897 117.711069,72.7735287 117.572092,70.3789425 C117.251092,64.8456897 119.142655,60.0725057 122.503931,55.7937356 C125.276092,52.2639655 128.622609,49.3392989 132.277828,46.7762184 C134.512529,45.2093448 136.85792,43.7998966 139.145506,42.3068161 C139.301701,42.2047356 139.449287,42.0165632 139.500943,41.8394598 C140.327425,39.0021149 141.006322,36.1303333 141.44908,33.2068966 C141.506885,32.8244023 141.500736,32.4246897 141.468759,32.0372759 C141.401115,31.1960345 140.909161,30.6991609 140.06423,30.7692644 C139.183632,30.8430575 138.314103,31.0607471 137.443345,31.2317011 L136.726322,31.4567701 C136.561517,31.489977 136.383184,31.4493908 136.20977,31.4420115 L136.490184,30.7532759 L136.604563,30.7077701 C139.278333,29.650069 142.025897,28.8321954 144.830034,28.204954 C145.190391,28.1250115 145.580264,28.1336207 145.95169,28.1631379 C146.48423,28.204954 146.874103,28.5923678 146.791701,29.1126092 C146.677322,29.8333218 146.467011,30.5441954 146.234563,31.2378506 C145.266644,34.1293103 144.275356,37.0121609 143.295138,39.899931 L143.200437,40.3242414 C143.815379,39.9577356 144.358989,39.6613333 144.87554,39.3231149 C147.533322,37.5815977 150.207092,35.8646782 152.825517,34.0653563 C154.040644,33.2302644 155.027011,32.1356667 155.591529,30.7262184 C155.865793,30.0411724 155.983862,29.3364483 155.886701,28.5997471 C155.830126,28.1680575 155.956805,28.054908 156.371276,28.216023 C156.901356,28.4226437 157.435126,28.6366437 157.932,28.9133678 C158.78554,29.3893333 159.059805,30.2268851 158.594908,31.0890345 C158.315724,31.6055862 157.932,32.0938506 157.504,32.4984828 C156.098241,33.8267586 154.495701,34.8992184 152.821828,35.8523793 C149.673322,37.6443218 146.502678,39.3981379 143.333264,41.1531839 C143.004885,41.3352069 142.863448,41.5688851 142.783506,41.9181724 C142.250966,44.2623333 141.949644,46.6372414 141.866011,49.0367471 C141.837724,49.8533908 141.847563,50.6823333 141.953333,51.4915977 C142.191931,53.3302759 143.152471,54.2477701 144.977621,54.5331034 C147.261517,54.891 149.309276,54.2588391 151.230356,53.0781494 C153.784828,51.5075862 156.088402,49.6184828 158.240701,47.5387471 L160.405299,45.3827586 C160.556575,45.2364023 160.763195,45.1232529 160.964897,45.0642184 C161.076816,45.0322414 161.231782,45.1453908 161.367069,45.1921264 C161.319103,45.3274138 161.308034,45.4971379 161.218253,45.593069 C160.666034,46.1834138 160.108897,46.770069 159.530851,47.3358161 C157.60608,49.2212299 155.623506,51.039 153.417092,52.5960345 C150.594506,54.5872184 147.537011,56.0593908 144.12654,56.7149195 C143.030713,56.9252299 141.922586,56.9916437 140.802161,56.7997816 C139.076632,56.5046092 138.152989,55.4407586 137.798782,53.7964023 C137.456874,52.2110805 137.583552,50.631908 137.910701,49.0650345 C138.287046,47.2657126 138.692908,45.4725402 139.084011,43.6756782 L139.140586,43.303023 L138.850333,43.3952644 C134.746207,45.8759425 130.824103,48.5976782 127.456678,52.0499655 C125.097759,54.4679195 123.106575,57.1318506 121.941874,60.3430805 C121.277736,62.1743793 120.91123,64.0671724 120.748885,66.0091609 C120.490609,69.0924828 120.90877,72.0761839 122.032885,74.9516552 C122.720391,76.7103908 123.726437,78.2514368 125.376943,79.275931 C126.69046,80.0913448 128.135575,80.3692989 129.661862,80.2745977 C132.609897,80.0925747 135.212333,78.8995862 137.720069,77.4655402 C140.834138,75.6858966 143.646885,73.4967011 146.300977,71.0922759 C148.036345,69.5192529 150.095172,68.8747931 152.425805,69.0752644 C153.818034,69.1957931 155.131552,69.5844368 156.383575,70.1944598 L156.603724,70.3137586 L156.64431,70.3887816 C154.986425,70.4035402 153.853701,71.3419425 152.944816,72.5742874 C152.077747,73.7512874 151.353345,75.0340575 150.482586,76.2085977 C148.005598,79.5538851 144.966552,82.2584023 141.210483,84.1093793 C138.974552,85.2113563 136.630391,85.921 134.120195,86.0107816 L133.673747,86.0907241 L131.747747,86.091954 L131.747747,86.091954 Z" transform="translate(2)"/>
    <text font-family="HelveticaNeue-Thin, Helvetica Neue" font-size="29" font-weight="300">
      <tspan x="0" y="53">The</tspan>
    </text>
    <text font-family="HelveticaNeue-Thin, Helvetica Neue" font-size="29" font-weight="300">
      <tspan x="170" y="53">club</tspan>
    </text>
  </g>
</svg>
