<svg width="112.2" height="112.2" xmlns="http://www.w3.org/2000/svg" class="u-svg-content">

 <g>
  <title>background</title>
  <rect fill="none" id="canvas_background" height="402" width="582" y="-1" x="-1"/>
 </g>
 <g>
  <title>Layer 1</title>
  <path fill="#ffffff" id="svg_1" d="m55.9,33.9c-12.8,0 -23.2,10.4 -23.2,23.2s10.4,23.2 23.2,23.2s23.2,-10.4 23.2,-23.2s-10.4,-23.2 -23.2,-23.2zm0,36.5c-7.4,0 -13.3,-6 -13.3,-13.3c-0.1,-7.4 6,-13.3 13.3,-13.3s13.3,6 13.3,13.3c0.1,7.4 -5.9,13.3 -13.3,13.3z"/>
  <path fill="#ffffff" id="svg_2" d="m79.7,26.8c-3,0 -5.4,2.5 -5.4,5.4s2.5,5.4 5.4,5.4c3,0 5.4,-2.5 5.4,-5.4s-2.4,-5.4 -5.4,-5.4z"/>
  <path fill="#ffffff" id="svg_3" d="m78.2,11l-44.7,0c-12.5,0 -22.7,10.3 -22.7,22.7l0,44.7c0,12.6 10.2,22.8 22.7,22.8l44.7,0c12.6,0 22.7,-10.2 22.7,-22.7l0,-44.8c-0.1,-12.6 -10.3,-22.7 -22.7,-22.7zm12.8,67.4c0,7.1 -5.8,12.8 -12.8,12.8l-44.7,0c-7.1,0 -12.8,-5.8 -12.8,-12.8l0,-44.7c0,-7.1 5.8,-12.8 12.8,-12.8l44.7,0c7.1,0 12.8,5.8 12.8,12.8l0,44.7z"/>
 </g>
</svg>