<svg width="18" height="20" xmlns="http://www.w3.org/2000/svg">

 <g>
  <title>background</title>
  <rect fill="none" id="canvas_background" height="402" width="582" y="-1" x="-1"/>
 </g>
 <g>
  <title>Layer 1</title>
  <path id="svg_1" d="m2.412698,0c0.677252,0 1.248675,0.243384 1.714286,0.730159c0.465611,0.486775 0.698413,1.068779 0.698413,1.746031c0,0.677253 -0.232802,1.248675 -0.698413,1.714286c-0.465611,0.465611 -1.037034,0.698413 -1.714286,0.698413c-0.677252,0 -1.248675,-0.232802 -1.714285,-0.698413c-0.465611,-0.465611 -0.698413,-1.037033 -0.698413,-1.714286c0,-0.677252 0.232802,-1.259256 0.698413,-1.746031c0.46561,-0.486775 1.037033,-0.730159 1.714285,-0.730159zm3.873016,20l0,-13.650794l3.936508,0l0,0.634921c0.761909,-0.380954 1.619043,-0.550265 2.571429,-0.507937c0.952386,0.042329 1.788356,0.253967 2.507936,0.634921c0.804237,0.465611 1.449733,1.121689 1.936508,1.968254c0.486775,0.846565 0.730159,1.714281 0.730159,2.603175l0,8.31746l-3.873016,0l0,-8.31746c0,-0.211642 -0.074073,-0.433862 -0.222222,-0.666667c-0.148149,-0.232805 -0.306878,-0.391534 -0.476191,-0.476191c-0.380954,-0.211641 -0.761904,-0.296296 -1.142857,-0.253968c-0.380954,0.042329 -0.719575,0.126984 -1.015873,0.253968c-0.380954,0.169314 -0.719575,0.402115 -1.015873,0.698413l0,8.761905l-3.936508,0zm-1.904762,-13.650794l0,13.650794l-3.936508,0l0,-13.650794l3.936508,0z" fill-rule="evenodd" fill="#ffffff"/>
 </g>
</svg>