<svg xmlns="http://www.w3.org/2000/svg" viewBox="0 0 1000 200"><path d="M985.4 143.6c1.5 0 3.2.4 3.2 2.4v.9c0 2.1-1.6 2.9-3.2 2.9h-2.3v-6.3h2.3zm.5-1.5h-4.4V158h1.7v-6.7h2.2l4.3 6.7h1.9l-4.4-6.7c2.5-.3 3.4-2.2 3.4-4.1v-1.4c-.1-2.6-2.4-3.7-4.7-3.7zm-.6-6.7c-8.2 0-14.6 6.4-14.6 14.4s6.4 14.6 14.6 14.6c8.1 0 14.7-6.5 14.7-14.6s-6.6-14.4-14.7-14.4zm0 1.5c7.1 0 12.7 6 12.7 13 0 7.1-5.5 13-12.7 13-7.2 0-12.9-5.9-12.9-13 .1-7 5.7-13 12.9-13zm-3.6-81.5h-21.6l-23.8 85.3s.1-.8.1-2.3c0-2.3-.2-6.2-1.5-10.8l-19.3-72.2-22.2.3s31.9 107.1 34.9 109.1c-4.1 12.8-8.2 18.6-15.8 22l7.5 12.8c10.6-2.2 20.9-12.7 24.1-23.3l37.6-120.9zm-111.6-1.8c-10.2 0-17.9 4.9-21.5 13.2-.9-4.6-5.5-11.3-8.6-12L826.2 63c2.5 1.7 5.9 8.1 5.9 14l-.1 86.5h19.5V90.7c0-11.3 8.6-16.6 17.6-16.6 4.4 0 8.8 1.3 12.4 3.7l6.2-19.1c-2.6-1.8-9.6-5.1-17.6-5.1zm-67.7 0c-10.2 0-18 4.9-21.5 13.2-1-4.6-6-11.3-8.7-12L758.5 63c2.5 1.7 6 8.1 6 14l-.2 86.5h19.6V90.7c0-11.3 8.6-16.6 17.6-16.6 4.4 0 8.8 1.3 12.4 3.7l6-19.1c-2.7-1.8-9.4-5.1-17.5-5.1zm-96.6 17.3c6.3 0 17.2 4.3 17.2 16.5v10.7h-36v-9.3c-.1-11.8 8.3-17.9 18.8-17.9zm.6-17.3c-22.3 0-39.5 11.1-39.5 35V128c0 23.1 15.6 37.4 38.6 37.4 17.2 0 27.2-5 37.6-12.4l-8.3-17c-11.2 7.9-19.1 11-28.5 11-10.9 0-19.5-6.7-19.5-20.8v-10.7H743V90.2c.2-26.7-18.2-36.6-36.6-36.6zM590.5 22.2H571v122.5c0 3.9-1.6 7.6-7.2 10.4l10.1 10.7c5.3-1.3 8.7-4.2 11.1-6.8 7.2 3.8 14.3 6.2 24.8 6.2 21.3 0 39.5-12.8 39.5-34.9v-42c0-22.5-13.9-34.8-35.2-34.8-5.1 0-16.6 1.9-23.6 6.6V22.2zm21.9 48.9c9 0 16.9 5.3 16.9 17.3v42.3c0 12.3-10.5 17.3-19.5 17.3-5.2 0-12.6-.7-19.3-5.4V79c6.4-5.3 15.3-7.9 21.9-7.9zm-70.5-17.5c-10.2 0-18 4.9-21.7 13.2-.7-4.6-5.7-11.3-8.5-12L498.1 63c2.4 1.7 5.8 8.1 5.8 14l-.2 86.5h19.7V90.7c0-11.3 8.6-16.6 17.6-16.6 4.4 0 8.8 1.3 12.4 3.7l6-19.1c-2.7-1.8-9.4-5.1-17.5-5.1zm-100.1 0c-16.3 0-29 6-36.9 16.1L415.8 83c7.9-10.4 17.4-12.6 24.7-12.6 8.8 0 17.5 4.9 17.3 17.4v10.4h-19.2c-25.5 0-37.7 17.8-37.7 34.7 0 4.3.7 8.5 2.3 12.4 4.4 11.2 15.4 20.1 33.7 20.1 8.8 0 17.8-2.4 25.2-7.7 3.9 4.7 6.1 6 11.4 8.3l11.2-9.4c-4.8-5.3-6.9-9.2-6.9-13.8V89.2c.1-22-14.1-35.6-36-35.6zm16 61.8v25.3c-6.3 4.6-12.6 7.4-19 7.4-2 0-4-.2-6-.8-7.6-2.1-11.5-8.5-11.5-15.1 0-8.3 6.3-16.8 19.1-16.9h17.4zm-92-92.3l-20 8.1v24.3h-14.2v16.4h14.2v68.7c0 19.5 10.6 24.5 20.1 24.5 10.2 0 16.9-2.8 21.6-7.1l-5.1-16.5c-2.9 3.4-6.8 5.1-10.1 5.1-3.7 0-6.5-2.2-6.5-6.9V71.9H389l3-16.4h-26.3V23.1zm-83.7-3c-25.3 0-42.6 15.1-42.6 36.3 0 19.2 12.5 31.1 28.5 39.3 8.7 4.6 20.7 9.2 27.9 17.3 3.5 3.8 5 8.6 5 13.4 0 5.8-2.4 11.7-7 15.8-4.6 3.5-11 5.4-18.3 5.4-8.1 0-18.7-3.6-28.4-12.7l-11.7 14.8c9.7 9.8 21.8 15.4 40.5 15.4 19.9 0 38-8.9 44.1-27.6 1.2-3.5 1.7-7.2 1.7-11 0-6-1.4-12-4.4-17.9-4.6-9-11.7-15.2-20.3-20.3-12.9-7.4-37.2-15.1-37.2-31.8 0-9.9 7.6-18.3 20.8-18.3 9.7 0 19.3 3.6 25.8 11.3L318 35.1c-6.1-6.6-17.3-15-35.9-15zm-125.5 7.5l-2.2 3.2c-.8 1.5-1.2 2.4-1.2 3.2 0 1.2.6 1.9 1.6 2.9 1.6 1.8 5.8 4.4 14 7.9 1.5.5 2.8 1.2 4.2 1.8-4.4-7.2-9.8-13.6-16.4-19zM107.4 8.3c5.4 3.2 11.2 6.5 18.5 7.3.8.1 1.6.1 2.2.1 2.7 0 4.3-.7 5.9-1.7-8.5-3.3-17.4-5.1-26.6-5.7zM94.8 11c-1.3.5-1.8 1.4-1.8 2.2 0 2.1 2.8 4.5 2.8 4.5s3.8 2.9 3.8 6.9c0 4.2-4.1 9.4-20.5 13.5 0 0-17.5 3.4-17.5 9.4 0 2.6 2.1 3.5 5.1 3.5 2.9 0 6.8-.8 10.8-1.6 2.6-.5 7.1-1.8 12.1-1.8 9.3 0 20.1 4.4 22.2 26.4 0 .1.8 18.5 4.6 19.7 4.3.9 4.1-7.5 6.6-17.7 1.7-8 8.5-22.8 23.3-22.8 4 0 8.6 1 13.7 3.6.1 0 11.4 6.6 16.6 6.6 1.2 0 2-.3 2.3-1.2 0 0 2.5-5.1-13.7-12-11.2-4.8-19.7-9.7-19.7-16.9 0-2.6 1.2-5.4 3.7-8.7.1-.1 2.4-2.6 2.4-5.1 0-.7-.1-1.5-.6-2.1-.7-.9-1.8-1.4-3-1.4-4.2 0-10.2 4.2-10.2 4.2s-3.2 2.5-9.7 2.5c-5.8 0-13.9-2-24.6-9.4 0 0-3.1-2.7-6.6-2.7-.7-.1-1.4 0-2.1.4zm-10.4-.6c-38 8.3-64.9 40.4-64.9 76.5 0 3.6.3 7.2.8 10.9 5.7 37.8 39.9 64.8 79.5 64.8 4.3 0 8.7-.4 13.2-1 41-6.1 70.7-39.8 70.7-77.5 0-3.6-.3-7.2-.8-10.8l-.4-1.6c-.2.1-.4.2-.5.3-.9.4-2.1.5-3.2.5-7.3 0-18.1-6.3-22.3-8.2-2.9-1.5-6.5-2.4-9.9-2.4-2 0-4 .3-5.8 1-9.2 5-11.6 18-12.4 22-.7 3.8-1.4 11.1-4.1 14.8-2.3 2.9-5.1 4.2-7.9 4.2-2.9 0-5.7-1.4-7.6-3.7-3.8-4.3-4.9-19-4.9-21.6 0-2.4-.9-15.7-8-20.3-2.3-1.5-5.2-2-8.3-2-6.4 0-13.7 2.3-19.6 3-1.3.2-2.5.3-3.7.3-6.6 0-10.9-3-12.5-7.3-.5-.9-.7-2.2-.7-3.5 0-2.8 1.3-6.1 3.4-8.1 7.3-7.4 22.3-9.5 25.7-10.6 3.6-.7 5.9-2 9.2-4.2.8-.6 1.3-.8 1.3-1.2 0-.5-1-1.2-2.8-3.4-2.7-3.1-4-5.3-4-8.1-.1-.4.1-1.5.5-2.8zm39.4-8.2C117.2.9 110.6.4 104.1.4 92.9.4 82 2.1 71.9 5.4 28.5 19.7 0 58.5 0 98.4c0 8.1 1.3 16.2 3.8 24.4 6.6 21.6 22 39.6 43.6 50.8 15 7.7 31.6 11.8 48.3 11.8 10.5 0 20.9-1.6 31.1-4.8 43.2-13.4 71.7-52.5 71.7-93.3 0-7.9-1-15.8-3.2-23.7-2.8-11.2-9.4-22.2-18-32-6.3-6.1-12.3-10.9-18.1-14.9.2.9.3 1.9.3 2.8v.8C172 30 182 43 186.9 58.5c2.3 6.4 4.1 14.9 4.1 24.7 0 11.3-2.4 24.5-9.6 38-11.3 21.3-31.5 38.1-55.8 45.4-9.6 3-19.4 4.4-28.8 4.4-37.6 0-71.6-22.3-82.6-57.3-2.4-7.5-3.5-15.3-3.5-22.9 0-36.6 26-71.5 65.4-83.9 5-1.6 10.3-2.7 15.6-3.4l2.7-.4c3.2-.3 6.5-.4 9.6-.4 13.3 0 26.2 2.5 37.7 7.4.6-.2 1.4-.4 2.1-.6l-.3-1.3c-11.2-4.8-19.1-5.9-19.7-6z"></path></svg>