<svg xmlns="http://www.w3.org/2000/svg" width="1000" height="200" viewBox="0 0 1000 200">
  <path fill="#838F94" d="M985.4,143.6 C986.9,143.6 988.6,144 988.6,146 L988.6,146.9 C988.6,149 987,149.8 985.4,149.8 L983.1,149.8 L983.1,143.5 L985.4,143.5 L985.4,143.6 Z M985.9,142.1 L981.5,142.1 L981.5,158 L983.2,158 L983.2,151.3 L985.4,151.3 L989.7,158 L991.6,158 L987.2,151.3 C989.7,151 990.6,149.1 990.6,147.2 L990.6,145.8 C990.5,143.2 988.2,142.1 985.9,142.1 L985.9,142.1 Z M985.3,135.4 C977.1,135.4 970.7,141.8 970.7,149.8 C970.7,157.8 977.1,164.4 985.3,164.4 C993.4,164.4 1000,157.9 1000,149.8 C1000,141.7 993.4,135.4 985.3,135.4 Z M985.3,136.9 C992.4,136.9 998,142.9 998,149.9 C998,157 992.5,162.9 985.3,162.9 C978.1,162.9 972.4,157 972.4,149.9 C972.5,142.9 978.1,136.9 985.3,136.9 Z M981.7,55.4 L960.1,55.4 L936.3,140.7 C936.3,140.7 936.4,139.9 936.4,138.4 C936.4,136.1 936.2,132.2 934.9,127.6 L915.6,55.4 L893.4,55.7 C893.4,55.7 925.3,162.8 928.3,164.8 C924.2,177.6 920.1,183.4 912.5,186.8 L920,199.6 C930.6,197.4 940.9,186.9 944.1,176.3 L981.7,55.4 L981.7,55.4 Z M870.1,53.6 C859.9,53.6 852.2,58.5 848.6,66.8 C847.7,62.2 843.1,55.5 840,54.8 L826.2,63 C828.7,64.7 832.1,71.1 832.1,77 L832,163.5 L851.5,163.5 L851.5,90.7 C851.5,79.4 860.1,74.1 869.1,74.1 C873.5,74.1 877.9,75.4 881.5,77.8 L887.7,58.7 C885.1,56.9 878.1,53.6 870.1,53.6 L870.1,53.6 Z M802.4,53.6 C792.2,53.6 784.4,58.5 780.9,66.8 C779.9,62.2 774.9,55.5 772.2,54.8 L758.5,63 C761,64.7 764.5,71.1 764.5,77 L764.3,163.5 L783.9,163.5 L783.9,90.7 C783.9,79.4 792.5,74.1 801.5,74.1 C805.9,74.1 810.3,75.4 813.9,77.8 L819.9,58.7 C817.2,56.9 810.5,53.6 802.4,53.6 L802.4,53.6 Z M705.8,70.9 C712.1,70.9 723,75.2 723,87.4 L723,98.1 L687,98.1 L687,88.8 C686.9,77 695.3,70.9 705.8,70.9 Z M706.4,53.6 C684.1,53.6 666.9,64.7 666.9,88.6 L666.9,128 C666.9,151.1 682.5,165.4 705.5,165.4 C722.7,165.4 732.7,160.4 743.1,153 L734.8,136 C723.6,143.9 715.7,147 706.3,147 C695.4,147 686.8,140.3 686.8,126.2 L686.8,115.5 L743,115.5 L743,90.2 C743.2,63.5 724.8,53.6 706.4,53.6 L706.4,53.6 Z M590.5,22.2 L571,22.2 L571,144.7 C571,148.6 569.4,152.3 563.8,155.1 L573.9,165.8 C579.2,164.5 582.6,161.6 585,159 C592.2,162.8 599.3,165.2 609.8,165.2 C631.1,165.2 649.3,152.4 649.3,130.3 L649.3,88.3 C649.3,65.8 635.4,53.5 614.1,53.5 C609,53.5 597.5,55.4 590.5,60.1 L590.5,22.2 L590.5,22.2 Z M612.4,71.1 C621.4,71.1 629.3,76.4 629.3,88.4 L629.3,130.7 C629.3,143 618.8,148 609.8,148 C604.6,148 597.2,147.3 590.5,142.6 L590.5,79 C596.9,73.7 605.8,71.1 612.4,71.1 Z M541.9,53.6 C531.7,53.6 523.9,58.5 520.2,66.8 C519.5,62.2 514.5,55.5 511.7,54.8 L498.1,63 C500.5,64.7 503.9,71.1 503.9,77 L503.7,163.5 L523.4,163.5 L523.4,90.7 C523.4,79.4 532,74.1 541,74.1 C545.4,74.1 549.8,75.4 553.4,77.8 L559.4,58.7 C556.7,56.9 550,53.6 541.9,53.6 L541.9,53.6 Z M441.8,53.6 C425.5,53.6 412.8,59.6 404.9,69.7 L415.8,83 C423.7,72.6 433.2,70.4 440.5,70.4 C449.3,70.4 458,75.3 457.8,87.8 L457.8,98.2 L438.6,98.2 C413.1,98.2 400.9,116 400.9,132.9 C400.9,137.2 401.6,141.4 403.2,145.3 C407.6,156.5 418.6,165.4 436.9,165.4 C445.7,165.4 454.7,163 462.1,157.7 C466,162.4 468.2,163.7 473.5,166 L484.7,156.6 C479.9,151.3 477.8,147.4 477.8,142.8 L477.8,89.2 C477.9,67.2 463.7,53.6 441.8,53.6 L441.8,53.6 Z M457.8,115.4 L457.8,140.7 C451.5,145.3 445.2,148.1 438.8,148.1 C436.8,148.1 434.8,147.9 432.8,147.3 C425.2,145.2 421.3,138.8 421.3,132.2 C421.3,123.9 427.6,115.4 440.4,115.3 L457.8,115.3 L457.8,115.4 Z M365.8,23.1 L345.8,31.2 L345.8,55.5 L331.6,55.5 L331.6,71.9 L345.8,71.9 L345.8,140.6 C345.8,160.1 356.4,165.1 365.9,165.1 C376.1,165.1 382.8,162.3 387.5,158 L382.4,141.5 C379.5,144.9 375.6,146.6 372.3,146.6 C368.6,146.6 365.8,144.4 365.8,139.7 L365.8,71.9 L389,71.9 L392,55.5 L365.7,55.5 L365.7,23.1 L365.8,23.1 Z M282.1,20.1 C256.8,20.1 239.5,35.2 239.5,56.4 C239.5,75.6 252,87.5 268,95.7 C276.7,100.3 288.7,104.9 295.9,113 C299.4,116.8 300.9,121.6 300.9,126.4 C300.9,132.2 298.5,138.1 293.9,142.2 C289.3,145.7 282.9,147.6 275.6,147.6 C267.5,147.6 256.9,144 247.2,134.9 L235.5,149.7 C245.2,159.5 257.3,165.1 276,165.1 C295.9,165.1 314,156.2 320.1,137.5 C321.3,134 321.8,130.3 321.8,126.5 C321.8,120.5 320.4,114.5 317.4,108.6 C312.8,99.6 305.7,93.4 297.1,88.3 C284.2,80.9 259.9,73.2 259.9,56.5 C259.9,46.6 267.5,38.2 280.7,38.2 C290.4,38.2 300,41.8 306.5,49.5 L318,35.1 C311.9,28.5 300.7,20.1 282.1,20.1 L282.1,20.1 Z M156.6,27.6 L154.4,30.8 C153.6,32.3 153.2,33.2 153.2,34 C153.2,35.2 153.8,35.9 154.8,36.9 C156.4,38.7 160.6,41.3 168.8,44.8 C170.3,45.3 171.6,46 173,46.6 C168.6,39.4 163.2,33 156.6,27.6 L156.6,27.6 Z M107.4,8.3 C112.8,11.5 118.6,14.8 125.9,15.6 C126.7,15.7 127.5,15.7 128.1,15.7 C130.8,15.7 132.4,15 134,14 C125.5,10.7 116.6,8.9 107.4,8.3 Z M94.8,11 C93.5,11.5 93,12.4 93,13.2 C93,15.3 95.8,17.7 95.8,17.7 C95.8,17.7 99.6,20.6 99.6,24.6 C99.6,28.8 95.5,34 79.1,38.1 C79.1,38.1 61.6,41.5 61.6,47.5 C61.6,50.1 63.7,51 66.7,51 C69.6,51 73.5,50.2 77.5,49.4 C80.1,48.9 84.6,47.6 89.6,47.6 C98.9,47.6 109.7,52 111.8,74 C111.8,74.1 112.6,92.5 116.4,93.7 C120.7,94.6 120.5,86.2 123,76 C124.7,68 131.5,53.2 146.3,53.2 C150.3,53.2 154.9,54.2 160,56.8 C160.1,56.8 171.4,63.4 176.6,63.4 C177.8,63.4 178.6,63.1 178.9,62.2 C178.9,62.2 181.4,57.1 165.2,50.2 C154,45.4 145.5,40.5 145.5,33.3 C145.5,30.7 146.7,27.9 149.2,24.6 C149.3,24.5 151.6,22 151.6,19.5 C151.6,18.8 151.5,18 151,17.4 C150.3,16.5 149.2,16 148,16 C143.8,16 137.8,20.2 137.8,20.2 C137.8,20.2 134.6,22.7 128.1,22.7 C122.3,22.7 114.2,20.7 103.5,13.3 C103.5,13.3 100.4,10.6 96.9,10.6 C96.2,10.5 95.5,10.6 94.8,11 L94.8,11 Z M84.4,10.4 C46.4,18.7 19.5,50.8 19.5,86.9 C19.5,90.5 19.8,94.1 20.3,97.8 C26,135.6 60.2,162.6 99.8,162.6 C104.1,162.6 108.5,162.2 113,161.6 C154,155.5 183.7,121.8 183.7,84.1 C183.7,80.5 183.4,76.9 182.9,73.3 L182.5,71.7 C182.3,71.8 182.1,71.9 182,72 C181.1,72.4 179.9,72.5 178.8,72.5 C171.5,72.5 160.7,66.2 156.5,64.3 C153.6,62.8 150,61.9 146.6,61.9 C144.6,61.9 142.6,62.2 140.8,62.9 C131.6,67.9 129.2,80.9 128.4,84.9 C127.7,88.7 127,96 124.3,99.7 C122,102.6 119.2,103.9 116.4,103.9 C113.5,103.9 110.7,102.5 108.8,100.2 C105,95.9 103.9,81.2 103.9,78.6 C103.9,76.2 103,62.9 95.9,58.3 C93.6,56.8 90.7,56.3 87.6,56.3 C81.2,56.3 73.9,58.6 68,59.3 C66.7,59.5 65.5,59.6 64.3,59.6 C57.7,59.6 53.4,56.6 51.8,52.3 C51.3,51.4 51.1,50.1 51.1,48.8 C51.1,46 52.4,42.7 54.5,40.7 C61.8,33.3 76.8,31.2 80.2,30.1 C83.8,29.4 86.1,28.1 89.4,25.9 C90.2,25.3 90.7,25.1 90.7,24.7 C90.7,24.2 89.7,23.5 87.9,21.3 C85.2,18.2 83.9,16 83.9,13.2 C83.8,12.8 84,11.7 84.4,10.4 L84.4,10.4 Z M123.8,2.2 C117.2,0.9 110.6,0.4 104.1,0.4 C92.9,0.4 82,2.1 71.9,5.4 C28.5,19.7 0,58.5 0,98.4 C0,106.5 1.3,114.6 3.8,122.8 C10.4,144.4 25.8,162.4 47.4,173.6 C62.4,181.3 79,185.4 95.7,185.4 C106.2,185.4 116.6,183.8 126.8,180.6 C170,167.2 198.5,128.1 198.5,87.3 C198.5,79.4 197.5,71.5 195.3,63.6 C192.5,52.4 185.9,41.4 177.3,31.6 C171,25.5 165,20.7 159.2,16.7 C159.4,17.6 159.5,18.6 159.5,19.5 L159.5,20.3 C172,30 182,43 186.9,58.5 C189.2,64.9 191,73.4 191,83.2 C191,94.5 188.6,107.7 181.4,121.2 C170.1,142.5 149.9,159.3 125.6,166.6 C116,169.6 106.2,171 96.8,171 C59.2,171 25.2,148.7 14.2,113.7 C11.8,106.2 10.7,98.4 10.7,90.8 C10.7,54.2 36.7,19.3 76.1,6.9 C81.1,5.3 86.4,4.2 91.7,3.5 L94.4,3.1 C97.6,2.8 100.9,2.7 104,2.7 C117.3,2.7 130.2,5.2 141.7,10.1 C142.3,9.9 143.1,9.7 143.8,9.5 L143.5,8.2 C132.3,3.4 124.4,2.3 123.8,2.2 Z"/>
</svg>
